<svg width="209" height="207" viewBox="0 0 209 207" fill="none" xmlns="http://www.w3.org/2000/svg">
<path d="M188.049 130.758C188.049 157.56 166.322 179.287 139.52 179.287C112.718 179.287 90.9912 157.56 90.9912 130.758C90.9912 103.957 112.718 82.2295 139.52 82.2295C166.322 82.2295 188.049 103.957 188.049 130.758Z" fill="white"/>
<mask id="mask0_973_691" style="mask-type:alpha" maskUnits="userSpaceOnUse" x="0" y="0" width="209" height="207">
<path d="M64.1012 130.311C64.4712 130.366 64.8498 130.395 65.2352 130.395H87.8459C92.0647 130.395 95.4847 126.976 95.4847 122.758V118.94C95.4847 114.723 92.0647 111.304 87.8459 111.304H80.2071C78.0977 111.304 76.3877 109.595 76.3877 107.486V99.8497C76.3877 95.6323 72.9678 92.2134 68.749 92.2134L61.1102 92.2134C59.0008 92.2134 57.2908 90.504 57.2908 88.3953V80.7591C57.2908 76.5418 53.8708 73.1229 49.652 73.1229H45.8326C41.6139 73.1229 38.1939 76.5418 38.1939 80.7591V98.5897C38.1939 98.6965 38.196 98.8028 38.2004 98.9085C38.2089 99.1159 38.2089 99.3235 38.2004 99.5309C38.1961 99.6366 38.1939 99.7429 38.1939 99.8497V103.362C38.1939 107.58 41.6139 110.999 45.8326 110.999H53.777C55.8863 110.999 57.5964 112.708 57.5964 114.817V122.758C57.5964 126.591 60.4202 129.763 64.1012 130.311Z" fill="#283451"/>
<path d="M19.0969 164.974C22.0181 172.577 38.1939 186.057 38.1939 186.057V157.504C38.1939 153.286 34.7739 149.867 30.5551 149.867H26.7357C22.5169 149.867 19.0969 153.286 19.0969 157.504V164.974Z" fill="#283451"/>
<path d="M19.0969 44.1785V65.4867C19.0969 66.0139 19.0435 66.5286 18.9417 67.0257C18.2295 70.5054 15.1496 73.1229 11.4582 73.1229H7.63876H7.63631H4.15683L9.88591 59.5962C9.88591 59.5962 17.974 43.8415 19.0969 44.1785Z" fill="#283451"/>
<path d="M57.2908 11.1521C57.2908 11.1521 39.5423 17.2181 26.7357 34.9418H34.3745C36.4839 34.9418 38.1939 36.6513 38.1939 38.7599V46.3962C38.1939 50.6136 41.6139 54.0324 45.8326 54.0324H49.652C53.8708 54.0324 57.2908 50.6136 57.2908 46.3962V11.1521Z" fill="#283451"/>
<path d="M76.3877 3.61284C76.6129 3.40127 88.408 -0.000229704 95.4846 1.16346e-08V68.7532C95.4846 70.8334 94.6526 72.7192 93.3031 74.0964C91.9083 75.54 89.9499 76.4352 87.7837 76.4284L64.8527 76.356C60.634 76.3426 57.2248 72.913 57.2381 68.6957L57.25 64.9351C57.2634 60.7177 60.6941 57.3097 64.9129 57.323L72.5562 57.3472C74.6703 57.3538 76.3877 55.6426 76.3877 53.5292V3.61284Z" fill="#283451"/>
<path fill-rule="evenodd" clip-rule="evenodd" d="M171.872 103.668C171.872 107.885 175.292 111.304 179.511 111.304H184.018C188.237 111.304 191.657 107.885 191.657 103.668V76.941C191.657 74.8323 193.367 73.1229 195.476 73.1229H202.427C206.646 73.1229 208.382 69.9642 208.382 65.7468C208.382 65.7468 177.714 22.9472 169.626 15.8513L134.241 2.72695C134.241 2.72695 129.523 1.37893 133.679 3.40096V8.21504C133.679 12.4324 137.099 15.8513 141.317 15.8513H148.956C151.065 15.8513 152.775 17.5607 152.775 19.6694V50.2143C152.775 52.323 151.065 54.0324 148.956 54.0324L141.317 54.0324C137.099 54.0324 133.679 57.4512 133.679 61.6686V65.4867C133.679 65.4895 133.679 65.4924 133.679 65.4952V69.3048C133.679 71.4135 131.969 73.1229 129.859 73.1229H122.22C118.002 73.1229 114.582 76.5417 114.582 80.7591V84.5772C114.582 84.6691 114.583 84.7606 114.586 84.8518C114.639 86.3464 114.384 87.9283 113.326 88.9859L111.353 90.9579C110.295 92.0155 108.713 92.2711 107.217 92.2183C107.126 92.215 107.035 92.2134 106.943 92.2134L103.123 92.2134C98.9047 92.2134 95.4847 95.6323 95.4847 99.8496V103.668C95.4847 107.885 98.9047 111.304 103.123 111.304H106.943C111.162 111.304 114.582 107.885 114.582 103.668V99.8496C114.582 98.5205 114.865 97.1394 115.806 96.1996L118.569 93.437C119.509 92.4971 120.891 92.2134 122.22 92.2134H145.137C149.355 92.2134 152.775 88.7946 152.775 84.5772V80.7591C152.775 80.7017 152.775 80.6444 152.774 80.5873C152.775 80.5302 152.775 80.4729 152.775 80.4155V76.941C152.775 74.8323 154.485 73.1229 156.595 73.1229H168.053C170.162 73.1229 171.872 74.8323 171.872 76.941V103.668ZM190.969 41.3336V50.2143C190.969 52.323 189.259 54.0324 187.15 54.0324H175.692C173.582 54.0324 171.872 52.323 171.872 50.2143V22.2732L190.969 41.3336Z" fill="#283451"/>
<path d="M126.04 15.8513C130.259 15.8513 133.679 19.2701 133.679 23.4875V46.3962C133.679 50.6136 130.259 54.0324 126.04 54.0324H122.22C118.002 54.0324 114.582 50.6136 114.582 46.3962V23.4875C114.582 19.2701 118.002 15.8513 122.22 15.8513H126.04Z" fill="#283451"/>
<path d="M106.943 130.395C111.162 130.395 114.582 133.814 114.582 138.031V141.849C114.582 143.29 114.893 144.798 115.945 145.782L118.696 148.356C119.627 149.227 120.946 149.485 122.22 149.485H126.04C130.259 149.485 133.679 152.904 133.679 157.122V160.94C133.679 165.157 130.259 168.576 126.04 168.576H122.22C121.604 168.576 120.99 168.77 120.554 169.205L115.211 174.547C114.775 174.982 114.582 175.596 114.582 176.212V180.03C114.582 184.248 111.162 187.667 106.943 187.667H103.123C98.9047 187.667 95.4847 184.248 95.4847 180.03V176.212C95.4847 171.995 98.9047 168.576 103.123 168.576H106.943C107.164 168.576 107.383 168.585 107.6 168.604C109.201 168.74 110.929 168.534 112.065 167.398L113.403 166.061C114.54 164.925 114.746 163.197 114.609 161.597C114.591 161.38 114.582 161.161 114.582 160.94V157.122C114.582 155.686 114.271 154.184 113.222 153.203L110.45 150.611C109.524 149.744 108.211 149.485 106.943 149.485H103.123C98.9047 149.485 95.4847 146.067 95.4847 141.849V138.031C95.4847 133.814 98.9047 130.395 103.123 130.395H106.943Z" fill="#283451"/>
<path d="M11.4582 92.2134C15.6769 92.2134 19.0969 95.6323 19.0969 99.8497V103.668C19.0969 105.108 19.408 106.617 20.4602 107.601L23.2118 110.175C24.1422 111.045 25.4614 111.304 26.7357 111.304H30.5551C34.7739 111.304 38.1939 114.723 38.1939 118.94V122.758C38.1939 124.199 38.5049 125.707 39.5571 126.691L42.3087 129.265C43.2391 130.136 44.5584 130.395 45.8326 130.395H49.652C53.8708 130.395 57.2908 133.814 57.2908 138.031V141.849C57.2908 146.067 53.8708 149.485 49.652 149.485H45.8326C41.6139 149.485 38.1939 146.067 38.1939 141.849V138.031C38.1939 136.596 37.8828 135.093 36.8344 134.113L34.0627 131.52C33.1365 130.653 31.8236 130.395 30.5551 130.395H26.7357C22.5169 130.395 19.0969 126.976 19.0969 122.758V118.94C19.0969 117.505 18.7859 116.003 17.7375 115.022L14.9658 112.429C14.0395 111.563 12.7267 111.304 11.4582 111.304H7.63876C3.41998 111.304 -1.84409e-07 107.885 0 103.668V99.8497C1.84409e-07 95.6323 3.41998 92.2134 7.63876 92.2134H11.4582Z" fill="#283451"/>
<path d="M207.645 130.395L206.134 142.921L182.094 183.849C155.808 205.08 132.555 206.757 132.555 206.757H122.332C118.113 206.757 114.693 203.338 114.693 199.121V195.303C114.693 191.085 118.113 187.667 122.332 187.667H168.165C170.274 187.667 171.984 185.957 171.984 183.849V153.304C171.984 151.195 170.274 149.485 168.165 149.485H141.429C137.21 149.485 133.79 146.067 133.79 141.849V118.94C133.79 114.723 137.21 111.304 141.429 111.304H145.249C149.467 111.304 152.887 114.723 152.887 118.94V126.576C152.887 128.685 154.597 130.395 156.707 130.395H207.645Z" fill="#283451"/>
<path d="M58.1885 160.94C58.1885 156.722 61.6085 153.304 65.8273 153.304H69.6467C73.8654 153.304 77.2854 156.722 77.2854 160.94V202.939L-nan -nanL77.2854 202.939C77.2854 206.615 77.2869 206.615 77.2869 206.615L-nan -nanL77.2869 206.615L-nan -nanL77.2869 206.615L-nan -nanL77.2869 206.615C77.2869 206.615 58.1885 200.886 58.1885 199.538V160.94Z" fill="#283451"/>
</mask>
<g mask="url(#mask0_973_691)">
<path d="M210.641 104.797C210.641 162.902 163.537 210.006 105.432 210.006C47.3265 210.006 0.2229 162.902 0.2229 104.797C0.2229 46.6915 47.3265 -0.412109 105.432 -0.412109C163.537 -0.412109 210.641 46.6915 210.641 104.797Z" fill="#283451"/>
</g>
</svg>
